<svg width="285" height="70" viewBox="0 0 285 70" fill="none" xmlns="http://www.w3.org/2000/svg">
<g clip-path="url(#clip0_0_17)">
<path d="M97.7812 48.9805L97.368 44.8291C95.9388 47.2257 92.5701 49.6757 87.3541 49.6757C78.818 49.6757 71.2493 43.4 71.2493 32.6034C71.2493 21.8069 79.2312 15.5798 87.7187 15.5798C95.6569 15.5798 100.732 20.1493 102.482 25.5451L97.2659 27.5284C96.1576 23.8389 92.9298 20.6986 87.7138 20.6986C82.4979 20.6986 76.8736 24.4805 76.8736 32.6034C76.8736 40.7264 82.0409 44.6007 87.6701 44.6007C94.2666 44.6007 96.7604 40.0798 97.0375 37.2653H86.2409V32.4187H102.253V48.9805H97.7763H97.7812Z" fill="#f0f0ec"/>
<path d="M120.57 31.8159C119.972 31.7235 119.37 31.6798 118.815 31.6798C114.664 31.6798 112.773 34.0763 112.773 38.2763V48.9805H107.421V26.5124H112.637V30.1097C113.697 27.6645 116.19 26.2354 119.141 26.2354C119.788 26.2354 120.342 26.3277 120.57 26.3715V31.8159Z" fill="#f0f0ec"/>
<path d="M143.685 42.5688C142.484 46.4917 138.93 49.6757 133.535 49.6757C127.444 49.6757 122.048 45.2473 122.048 37.6348C122.048 30.5278 127.308 25.8223 132.98 25.8223C139.903 25.8223 143.962 30.3917 143.962 37.4938C143.962 38.3688 143.869 39.1077 143.821 39.2H127.395C127.531 42.6125 130.21 45.0577 133.53 45.0577C136.85 45.0577 138.42 43.3514 139.159 41.1348L143.68 42.5639L143.685 42.5688ZM138.566 35.2771C138.474 32.6473 136.719 30.2945 133.029 30.2945C129.66 30.2945 127.726 32.8757 127.541 35.2771H138.566Z" fill="#f0f0ec"/>
<path d="M148.366 58.0708L153.767 46.3069L144.171 26.5125H150.213L156.674 40.7215L162.716 26.5125H168.389L154.088 58.0708H148.366Z" fill="#f0f0ec"/>
<path d="M176.264 48.9805H170.912V15.575H176.264V28.6805C177.785 26.6972 180.323 25.8659 182.676 25.8659C188.213 25.8659 190.886 29.8326 190.886 34.7715V48.9805H185.534V35.6902C185.534 32.9194 184.29 30.7076 180.921 30.7076C177.97 30.7076 176.351 32.9194 176.259 35.7826V48.9805H176.264Z" fill="#f0f0ec"/>
<path d="M201.337 36.1084L207.103 35.2334C208.396 35.0487 208.765 34.4021 208.765 33.6195C208.765 31.7285 207.472 30.207 204.521 30.207C201.571 30.207 200.137 32.0056 199.908 34.266L195.018 33.1577C195.431 29.2834 198.941 25.8223 204.478 25.8223C211.4 25.8223 214.03 29.7452 214.03 34.2174V45.3834C214.03 47.4153 214.263 48.7521 214.307 48.9806H209.324C209.28 48.8396 209.096 47.9209 209.096 46.1174C208.036 47.8237 205.819 49.6709 202.174 49.6709C197.468 49.6709 194.561 46.4431 194.561 42.8896C194.561 38.8744 197.512 36.6625 201.342 36.1084H201.337ZM208.765 39.6618V38.6459L202.908 39.5209C201.245 39.798 199.908 40.7216 199.908 42.5688C199.908 44.0903 201.06 45.4757 203.185 45.4757C206.184 45.4757 208.765 44.0466 208.765 39.6618Z" fill="#f0f0ec"/>
<path d="M228.988 48.9805H223.635L214.501 26.5125H220.408L226.358 42.5687L232.172 26.5125H237.801L228.988 48.9805Z" fill="#f0f0ec"/>
<path d="M259.856 42.5688C258.655 46.4917 255.101 49.6757 249.706 49.6757C243.615 49.6757 238.219 45.2473 238.219 37.6348C238.219 30.5278 243.478 25.8223 249.151 25.8223C256.074 25.8223 260.133 30.3917 260.133 37.4938C260.133 38.3688 260.04 39.1077 259.992 39.2H243.566C243.702 42.6125 246.381 45.0577 249.701 45.0577C253.021 45.0577 254.591 43.3514 255.33 41.1348L259.851 42.5639L259.856 42.5688ZM254.732 35.2771C254.64 32.6473 252.885 30.2945 249.195 30.2945C245.826 30.2945 243.892 32.8757 243.707 35.2771H254.732Z" fill="#f0f0ec"/>
<path d="M269.393 48.9806H264.041V26.5125H269.257V29.5118C270.735 26.9306 273.408 25.866 275.902 25.866C281.39 25.866 284.02 29.8326 284.02 34.7715V48.9806H278.668V35.6903C278.668 32.9194 277.424 30.7076 274.055 30.7076C271.012 30.7076 269.393 33.0604 269.393 36.0111V48.9757V48.9806Z" fill="#f0f0ec"/>
<path d="M53.9972 15.7111L44.9215 10.3833H44.4306L36.3222 15.1424V5.32778L27.2465 0H26.7556L17.6799 5.32778V15.1424L9.57153 10.3833H9.08056L0 15.7111V16.0611V54.2208L9.07569 59.6264H9.57153L17.675 54.8042V64.6042L26.7507 70.0097H27.2465L36.3222 64.6042V54.8042L44.4257 59.6264H44.9215L53.9972 54.2208V15.7111ZM9.32361 11.3653L17.4417 16.134L9.32361 20.966L1.20556 16.134L9.32361 11.3653ZM0.972222 17.1257L8.8375 21.8069V48.1931L0.972222 52.8111V17.1257ZM8.8375 49.3208V58.3479L1.20556 53.8028L8.8375 49.3208ZM9.80972 58.3479V49.3208L17.4417 53.8028L9.80972 58.3479ZM17.675 52.8111L9.80972 48.1931V21.8069L17.675 17.1257V52.8111ZM35.35 16.0611V25.5208L27.4847 20.9028V11.4285L35.35 6.74722V16.0611ZM26.9986 31.3444L18.8806 26.5125L26.9986 21.7437L35.1167 26.5125L26.9986 31.3444ZM27.4847 10.2958V1.26875L35.1167 5.75069L27.4847 10.2958ZM26.5125 1.26875V10.2958L18.8806 5.75069L26.5125 1.26875ZM18.6472 6.74236L26.5125 11.4236V20.8979L18.6472 25.516V6.74236ZM18.6472 27.5042L26.5125 32.1854V58.5715L18.6472 63.1896V27.5042ZM26.5125 59.6993V68.7264L18.8806 64.1812L26.5125 59.6993ZM27.4847 68.7264V59.6993L35.1167 64.1812L27.4847 68.7264ZM35.35 63.1896L27.4847 58.5715V32.1854L35.35 27.5042V63.1896ZM45.1597 11.6521L52.7917 16.134L45.1597 20.6792V11.6521ZM44.1875 11.6521V20.6792L36.5556 16.134L44.1875 11.6521ZM36.3222 17.1257L44.1875 21.8069V48.1931L36.3222 52.8111V17.1257ZM44.6736 58.6396L36.5556 53.8028L44.6736 49.034L52.7917 53.8028L44.6736 58.6396ZM53.025 52.8111L45.1597 48.1931V21.8069L53.025 17.1257V52.8111Z" fill="#f0f0ec"/>
</g>
<defs>
<clipPath id="clip0_0_17">
<rect width="284.02" height="70" fill="white"/>
</clipPath>
</defs>
</svg>
